<svg width="1024" height="1024" viewBox="0 0 1024 1024" fill="none" xmlns="http://www.w3.org/2000/svg">
<path d="M861.177 422.253C861.177 615.098 704.845 771.43 512 771.43C319.155 771.43 162.823 615.098 162.823 422.253C162.823 229.408 319.155 73.0761 512 73.0761C704.845 73.0761 861.177 229.408 861.177 422.253Z" fill="white"/>
<path d="M224.954 72.6861C190.64 72.6861 162.823 100.503 162.823 134.817V889.869C162.823 924.183 190.64 952 224.954 952H439.674C473.988 952 501.805 924.183 501.805 889.869V827.874C501.805 821.192 496.388 815.774 489.705 815.774H428.744C416.391 815.774 406.377 805.76 406.377 793.407C406.377 781.054 416.391 771.04 428.744 771.04H501.805V72.6861H224.954Z" fill="white"/>
<path fill-rule="evenodd" clip-rule="evenodd" d="M224.954 72.6861C190.64 72.6861 162.823 100.503 162.823 134.817V889.869C162.823 924.183 190.64 952 224.954 952H439.674C473.988 952 501.805 924.183 501.805 889.869V827.874C501.805 821.192 496.388 815.774 489.705 815.774H428.744C416.391 815.774 406.377 805.76 406.377 793.407C406.377 781.054 416.391 771.04 428.744 771.04H501.805V72.6861H224.954Z" fill="white"/>
<path fill-rule="evenodd" clip-rule="evenodd" d="M224.954 72.6861C190.64 72.6861 162.823 100.503 162.823 134.817V889.869C162.823 924.183 190.64 952 224.954 952H439.674C473.988 952 501.805 924.183 501.805 889.869V827.874C501.805 821.192 496.388 815.774 489.705 815.774H428.744C416.391 815.774 406.377 805.76 406.377 793.407C406.377 781.054 416.391 771.04 428.744 771.04H501.805V72.6861H224.954Z" fill="white"/>
<path fill-rule="evenodd" clip-rule="evenodd" d="M224.954 72.6861C190.64 72.6861 162.823 100.503 162.823 134.817V889.869C162.823 924.183 190.64 952 224.954 952H439.674C473.988 952 501.805 924.183 501.805 889.869V827.874C501.805 821.192 496.388 815.774 489.705 815.774H428.744C416.391 815.774 406.377 805.76 406.377 793.407C406.377 781.054 416.391 771.04 428.744 771.04H501.805V72.6861H224.954Z" fill="white"/>
</svg>
