<svg width="1024" height="1024" viewBox="0 0 1024 1024" fill="none" xmlns="http://www.w3.org/2000/svg">
<path d="M913.594 414.729C913.594 636.523 733.794 816.323 512 816.323C290.206 816.323 110.406 636.523 110.406 414.729C110.406 192.935 290.206 13.1346 512 13.1346C733.794 13.1346 913.594 192.935 913.594 414.729Z" fill="black"/>
<path d="M181.864 12.6861C142.399 12.6861 110.406 44.6789 110.406 84.1441V952.542C110.406 992.007 142.399 1024 181.864 1024H428.816C468.282 1024 500.275 992.007 500.275 952.542V881.241C500.275 873.555 494.044 867.324 486.358 867.324H416.246C402.039 867.324 390.521 855.807 390.521 841.599C390.521 827.392 402.039 815.875 416.246 815.875H500.275V12.6861H181.864Z" fill="black"/>
<path fill-rule="evenodd" clip-rule="evenodd" d="M181.864 12.6861C142.399 12.6861 110.406 44.6789 110.406 84.1441V952.542C110.406 992.007 142.399 1024 181.864 1024H428.816C468.282 1024 500.275 992.007 500.275 952.542V881.241C500.275 873.555 494.044 867.324 486.358 867.324H416.246C402.039 867.324 390.521 855.807 390.521 841.599C390.521 827.392 402.039 815.875 416.246 815.875H500.275V12.6861H181.864Z" fill="black"/>
<path fill-rule="evenodd" clip-rule="evenodd" d="M181.864 12.6861C142.399 12.6861 110.406 44.6789 110.406 84.1441V952.542C110.406 992.007 142.399 1024 181.864 1024H428.816C468.282 1024 500.275 992.007 500.275 952.542V881.241C500.275 873.555 494.044 867.324 486.358 867.324H416.246C402.039 867.324 390.521 855.807 390.521 841.599C390.521 827.392 402.039 815.875 416.246 815.875H500.275V12.6861H181.864Z" fill="black"/>
<path fill-rule="evenodd" clip-rule="evenodd" d="M181.864 12.6861C142.399 12.6861 110.406 44.6789 110.406 84.1441V952.542C110.406 992.007 142.399 1024 181.864 1024H428.816C468.282 1024 500.275 992.007 500.275 952.542V881.241C500.275 873.555 494.044 867.324 486.358 867.324H416.246C402.039 867.324 390.521 855.807 390.521 841.599C390.521 827.392 402.039 815.875 416.246 815.875H500.275V12.6861H181.864Z" fill="black"/>
</svg>
