<svg width="24" height="24" viewBox="0 0 24 24" fill="none" xmlns="http://www.w3.org/2000/svg">
<g clip-path="url(#clip0_10_1486)">
<path d="M15.666 3.888C15.5327 3.4163 15.2489 3.00105 14.858 2.70538C14.467 2.40972 13.9902 2.24982 13.5 2.25H10.5C9.47 2.25 8.6 2.943 8.334 3.888M15.666 3.888C15.721 4.082 15.75 4.288 15.75 4.5C15.75 4.69891 15.671 4.88968 15.5303 5.03033C15.3897 5.17098 15.1989 5.25 15 5.25H9C8.80109 5.25 8.61032 5.17098 8.46967 5.03033C8.32902 4.88968 8.25 4.69891 8.25 4.5C8.25 4.288 8.28 4.082 8.334 3.888M15.666 3.888C16.312 3.937 16.954 3.998 17.593 4.072C18.693 4.2 19.5 5.149 19.5 6.257V19.5C19.5 20.0967 19.2629 20.669 18.841 21.091C18.419 21.5129 17.8467 21.75 17.25 21.75H6.75C6.15326 21.75 5.58097 21.5129 5.15901 21.091C4.73705 20.669 4.5 20.0967 4.5 19.5V6.257C4.5 5.149 5.306 4.2 6.407 4.072C7.04804 3.99778 7.6905 3.93643 8.334 3.888" stroke="white" stroke-width="1.5" stroke-linecap="round" stroke-linejoin="round"/>
</g>
<defs>
<clipPath id="clip0_10_1486">
<rect width="24" height="24" fill="white"/>
</clipPath>
</defs>
</svg>
